<mxfile host="app.diagrams.net" agent="Mozilla/5.0 (Windows NT 10.0; Win64; x64) AppleWebKit/537.36 (KHTML, like Gecko) Chrome/128.0.0.0 Safari/537.36 OPR/114.0.0.0" version="24.8.6">
  <diagram name="Page-1" id="WZ1JMok0Gi3pIr_YskOv">
    <mxGraphModel grid="1" page="1" gridSize="10" guides="1" tooltips="1" connect="1" arrows="1" fold="1" pageScale="1" pageWidth="3300" pageHeight="4681" math="0" shadow="0">
      <root>
        <mxCell id="0" />
        <mxCell id="1" parent="0" />
        <mxCell id="8eDwqu_KXpOvAN4puSAd-1" value="Start" style="ellipse;whiteSpace=wrap;html=1;" vertex="1" parent="1">
          <mxGeometry x="455.03" y="40" width="90" height="60" as="geometry" />
        </mxCell>
        <mxCell id="O7eTCn63_reXGQO6Kfxa-6" value="" style="edgeStyle=orthogonalEdgeStyle;rounded=0;orthogonalLoop=1;jettySize=auto;html=1;" edge="1" parent="1" source="8eDwqu_KXpOvAN4puSAd-2" target="O7eTCn63_reXGQO6Kfxa-2">
          <mxGeometry relative="1" as="geometry" />
        </mxCell>
        <mxCell id="8eDwqu_KXpOvAN4puSAd-2" value="Display welcome" style="shape=parallelogram;perimeter=parallelogramPerimeter;whiteSpace=wrap;html=1;fixedSize=1;" vertex="1" parent="1">
          <mxGeometry x="440.03" y="130" width="120" height="60" as="geometry" />
        </mxCell>
        <mxCell id="8eDwqu_KXpOvAN4puSAd-3" value="Display available cars (menu)&lt;div&gt;1. Axia&lt;/div&gt;&lt;div&gt;2. Honda City&lt;/div&gt;&lt;div&gt;3. Vellfire&lt;/div&gt;" style="shape=parallelogram;perimeter=parallelogramPerimeter;whiteSpace=wrap;html=1;fixedSize=1;" vertex="1" parent="1">
          <mxGeometry x="399.40999999999997" y="650" width="201.25" height="90" as="geometry" />
        </mxCell>
        <mxCell id="8eDwqu_KXpOvAN4puSAd-4" value="user select&lt;div&gt;car(1~3)&lt;/div&gt;" style="rhombus;whiteSpace=wrap;html=1;" vertex="1" parent="1">
          <mxGeometry x="460.03" y="770" width="80" height="80" as="geometry" />
        </mxCell>
        <mxCell id="8eDwqu_KXpOvAN4puSAd-5" value="display invalid" style="shape=parallelogram;perimeter=parallelogramPerimeter;whiteSpace=wrap;html=1;fixedSize=1;" vertex="1" parent="1">
          <mxGeometry x="600.66" y="790" width="120" height="40" as="geometry" />
        </mxCell>
        <mxCell id="8eDwqu_KXpOvAN4puSAd-6" value="" style="endArrow=classic;html=1;rounded=0;exitX=1;exitY=0.5;exitDx=0;exitDy=0;entryX=0;entryY=0.5;entryDx=0;entryDy=0;" edge="1" parent="1" source="8eDwqu_KXpOvAN4puSAd-4" target="8eDwqu_KXpOvAN4puSAd-5">
          <mxGeometry width="50" height="50" relative="1" as="geometry">
            <mxPoint x="560.03" y="700" as="sourcePoint" />
            <mxPoint x="610.03" y="650" as="targetPoint" />
          </mxGeometry>
        </mxCell>
        <mxCell id="8eDwqu_KXpOvAN4puSAd-7" value="" style="endArrow=classic;html=1;rounded=0;exitX=0.5;exitY=0;exitDx=0;exitDy=0;entryX=1;entryY=0.5;entryDx=0;entryDy=0;" edge="1" parent="1" source="8eDwqu_KXpOvAN4puSAd-5" target="8eDwqu_KXpOvAN4puSAd-3">
          <mxGeometry width="50" height="50" relative="1" as="geometry">
            <mxPoint x="550.03" y="820" as="sourcePoint" />
            <mxPoint x="621.03" y="820" as="targetPoint" />
            <Array as="points">
              <mxPoint x="661.03" y="695" />
            </Array>
          </mxGeometry>
        </mxCell>
        <mxCell id="8eDwqu_KXpOvAN4puSAd-8" value="" style="endArrow=classic;html=1;rounded=0;exitX=0.5;exitY=1;exitDx=0;exitDy=0;entryX=0.5;entryY=0;entryDx=0;entryDy=0;" edge="1" parent="1" source="8eDwqu_KXpOvAN4puSAd-3" target="8eDwqu_KXpOvAN4puSAd-4">
          <mxGeometry width="50" height="50" relative="1" as="geometry">
            <mxPoint x="560.03" y="830" as="sourcePoint" />
            <mxPoint x="631.03" y="830" as="targetPoint" />
          </mxGeometry>
        </mxCell>
        <mxCell id="8eDwqu_KXpOvAN4puSAd-9" value="" style="endArrow=classic;html=1;rounded=0;exitX=0.5;exitY=1;exitDx=0;exitDy=0;entryX=0.5;entryY=0;entryDx=0;entryDy=0;" edge="1" parent="1" source="8eDwqu_KXpOvAN4puSAd-1" target="8eDwqu_KXpOvAN4puSAd-2">
          <mxGeometry width="50" height="50" relative="1" as="geometry">
            <mxPoint x="570.03" y="420" as="sourcePoint" />
            <mxPoint x="641.03" y="420" as="targetPoint" />
          </mxGeometry>
        </mxCell>
        <mxCell id="8eDwqu_KXpOvAN4puSAd-11" value="no" style="text;html=1;align=center;verticalAlign=middle;whiteSpace=wrap;rounded=0;" vertex="1" parent="1">
          <mxGeometry x="540.03" y="780" width="60" height="30" as="geometry" />
        </mxCell>
        <mxCell id="8eDwqu_KXpOvAN4puSAd-13" value="Option(sub-menu)&lt;div&gt;1. Main menu&lt;/div&gt;&lt;div&gt;2. view car details&lt;/div&gt;&lt;div&gt;3. Proceed to rent&lt;/div&gt;" style="shape=parallelogram;perimeter=parallelogramPerimeter;whiteSpace=wrap;html=1;fixedSize=1;" vertex="1" parent="1">
          <mxGeometry x="399.40999999999997" y="890" width="201.25" height="90" as="geometry" />
        </mxCell>
        <mxCell id="8eDwqu_KXpOvAN4puSAd-14" value="Display car details" style="shape=parallelogram;perimeter=parallelogramPerimeter;whiteSpace=wrap;html=1;fixedSize=1;" vertex="1" parent="1">
          <mxGeometry x="620.03" y="1150" width="139.37" height="40" as="geometry" />
        </mxCell>
        <mxCell id="8eDwqu_KXpOvAN4puSAd-15" value="Option 1&lt;div&gt;(Main menu)&lt;/div&gt;" style="rhombus;whiteSpace=wrap;html=1;" vertex="1" parent="1">
          <mxGeometry x="455.03" y="1020" width="90" height="80" as="geometry" />
        </mxCell>
        <mxCell id="8eDwqu_KXpOvAN4puSAd-16" value="" style="endArrow=classic;html=1;rounded=0;exitX=0.5;exitY=1;exitDx=0;exitDy=0;entryX=0.5;entryY=0;entryDx=0;entryDy=0;" edge="1" parent="1" source="8eDwqu_KXpOvAN4puSAd-4" target="8eDwqu_KXpOvAN4puSAd-13">
          <mxGeometry width="50" height="50" relative="1" as="geometry">
            <mxPoint x="670.03" y="940" as="sourcePoint" />
            <mxPoint x="670.03" y="970" as="targetPoint" />
          </mxGeometry>
        </mxCell>
        <mxCell id="8eDwqu_KXpOvAN4puSAd-17" value="" style="endArrow=classic;html=1;rounded=0;exitX=0.5;exitY=1;exitDx=0;exitDy=0;" edge="1" parent="1" source="8eDwqu_KXpOvAN4puSAd-13" target="8eDwqu_KXpOvAN4puSAd-15">
          <mxGeometry width="50" height="50" relative="1" as="geometry">
            <mxPoint x="710.03" y="910" as="sourcePoint" />
            <mxPoint x="710.03" y="940" as="targetPoint" />
          </mxGeometry>
        </mxCell>
        <mxCell id="8eDwqu_KXpOvAN4puSAd-19" value="" style="endArrow=classic;html=1;rounded=0;exitX=0.5;exitY=0;exitDx=0;exitDy=0;entryX=1;entryY=0.5;entryDx=0;entryDy=0;" edge="1" parent="1" source="8eDwqu_KXpOvAN4puSAd-14" target="8eDwqu_KXpOvAN4puSAd-13">
          <mxGeometry width="50" height="50" relative="1" as="geometry">
            <mxPoint x="530.03" y="770" as="sourcePoint" />
            <mxPoint x="530.03" y="800" as="targetPoint" />
            <Array as="points">
              <mxPoint x="690.03" y="935" />
            </Array>
          </mxGeometry>
        </mxCell>
        <mxCell id="8eDwqu_KXpOvAN4puSAd-23" value="" style="edgeStyle=orthogonalEdgeStyle;rounded=0;orthogonalLoop=1;jettySize=auto;html=1;" edge="1" parent="1" source="8eDwqu_KXpOvAN4puSAd-22" target="8eDwqu_KXpOvAN4puSAd-14">
          <mxGeometry relative="1" as="geometry" />
        </mxCell>
        <mxCell id="8eDwqu_KXpOvAN4puSAd-22" value="Option 2&lt;div&gt;(view car details)&lt;/div&gt;" style="rhombus;whiteSpace=wrap;html=1;" vertex="1" parent="1">
          <mxGeometry x="460.03" y="1130" width="80" height="80" as="geometry" />
        </mxCell>
        <mxCell id="8eDwqu_KXpOvAN4puSAd-24" value="" style="endArrow=classic;html=1;rounded=0;exitX=0.5;exitY=1;exitDx=0;exitDy=0;entryX=0.5;entryY=0;entryDx=0;entryDy=0;" edge="1" parent="1" source="8eDwqu_KXpOvAN4puSAd-15" target="8eDwqu_KXpOvAN4puSAd-22">
          <mxGeometry width="50" height="50" relative="1" as="geometry">
            <mxPoint x="510.03" y="990" as="sourcePoint" />
            <mxPoint x="510.03" y="1030" as="targetPoint" />
          </mxGeometry>
        </mxCell>
        <mxCell id="8eDwqu_KXpOvAN4puSAd-25" value="no" style="text;html=1;align=center;verticalAlign=middle;whiteSpace=wrap;rounded=0;" vertex="1" parent="1">
          <mxGeometry x="490.03" y="1090" width="60" height="30" as="geometry" />
        </mxCell>
        <mxCell id="8eDwqu_KXpOvAN4puSAd-28" value="" style="edgeStyle=orthogonalEdgeStyle;rounded=0;orthogonalLoop=1;jettySize=auto;html=1;" edge="1" parent="1" source="8eDwqu_KXpOvAN4puSAd-26" target="8eDwqu_KXpOvAN4puSAd-27">
          <mxGeometry relative="1" as="geometry" />
        </mxCell>
        <mxCell id="8eDwqu_KXpOvAN4puSAd-26" value="Option 3&lt;div&gt;(Proceed to rent)&lt;/div&gt;" style="rhombus;whiteSpace=wrap;html=1;" vertex="1" parent="1">
          <mxGeometry x="460.03999999999996" y="1240" width="80" height="80" as="geometry" />
        </mxCell>
        <mxCell id="8eDwqu_KXpOvAN4puSAd-27" value="Input rental days" style="shape=parallelogram;perimeter=parallelogramPerimeter;whiteSpace=wrap;html=1;fixedSize=1;" vertex="1" parent="1">
          <mxGeometry x="440.03999999999996" y="1350" width="120" height="50" as="geometry" />
        </mxCell>
        <mxCell id="8eDwqu_KXpOvAN4puSAd-31" value="" style="edgeStyle=orthogonalEdgeStyle;rounded=0;orthogonalLoop=1;jettySize=auto;html=1;exitX=0.5;exitY=1;exitDx=0;exitDy=0;" edge="1" parent="1" source="8eDwqu_KXpOvAN4puSAd-22">
          <mxGeometry relative="1" as="geometry">
            <mxPoint x="650.03" y="1310" as="sourcePoint" />
            <mxPoint x="500.03" y="1240" as="targetPoint" />
          </mxGeometry>
        </mxCell>
        <mxCell id="8eDwqu_KXpOvAN4puSAd-32" value="" style="edgeStyle=orthogonalEdgeStyle;rounded=0;orthogonalLoop=1;jettySize=auto;html=1;exitX=0.5;exitY=1;exitDx=0;exitDy=0;entryX=0.5;entryY=0;entryDx=0;entryDy=0;" edge="1" parent="1" source="8eDwqu_KXpOvAN4puSAd-27" target="O7eTCn63_reXGQO6Kfxa-21">
          <mxGeometry relative="1" as="geometry">
            <mxPoint x="640.03" y="1400" as="sourcePoint" />
            <mxPoint x="500.01" y="1440" as="targetPoint" />
          </mxGeometry>
        </mxCell>
        <mxCell id="8eDwqu_KXpOvAN4puSAd-33" value="would you like to proceed the rental" style="rhombus;whiteSpace=wrap;html=1;" vertex="1" parent="1">
          <mxGeometry x="437.53" y="1610" width="125" height="110" as="geometry" />
        </mxCell>
        <mxCell id="8eDwqu_KXpOvAN4puSAd-39" value="" style="edgeStyle=orthogonalEdgeStyle;rounded=0;orthogonalLoop=1;jettySize=auto;html=1;" edge="1" parent="1" source="8eDwqu_KXpOvAN4puSAd-34" target="8eDwqu_KXpOvAN4puSAd-33">
          <mxGeometry relative="1" as="geometry" />
        </mxCell>
        <mxCell id="8eDwqu_KXpOvAN4puSAd-34" value="Display rental Summary" style="shape=parallelogram;perimeter=parallelogramPerimeter;whiteSpace=wrap;html=1;fixedSize=1;" vertex="1" parent="1">
          <mxGeometry x="440.01" y="1530" width="120" height="50" as="geometry" />
        </mxCell>
        <mxCell id="8eDwqu_KXpOvAN4puSAd-35" value="" style="edgeStyle=orthogonalEdgeStyle;rounded=0;orthogonalLoop=1;jettySize=auto;html=1;exitX=0.5;exitY=1;exitDx=0;exitDy=0;" edge="1" parent="1" source="O7eTCn63_reXGQO6Kfxa-21" target="8eDwqu_KXpOvAN4puSAd-34">
          <mxGeometry relative="1" as="geometry">
            <mxPoint x="500.01" y="1490" as="sourcePoint" />
            <mxPoint x="690.03" y="1580" as="targetPoint" />
            <Array as="points">
              <mxPoint x="500.03" y="1500" />
            </Array>
          </mxGeometry>
        </mxCell>
        <mxCell id="8eDwqu_KXpOvAN4puSAd-36" value="" style="edgeStyle=orthogonalEdgeStyle;rounded=0;orthogonalLoop=1;jettySize=auto;html=1;exitX=0.5;exitY=1;exitDx=0;exitDy=0;entryX=0.5;entryY=0;entryDx=0;entryDy=0;" edge="1" parent="1" source="8eDwqu_KXpOvAN4puSAd-34" target="8eDwqu_KXpOvAN4puSAd-33">
          <mxGeometry relative="1" as="geometry">
            <mxPoint x="610.03" y="1620" as="sourcePoint" />
            <mxPoint x="610.03" y="1660" as="targetPoint" />
            <Array as="points">
              <mxPoint x="500.03" y="1590" />
              <mxPoint x="500.03" y="1590" />
            </Array>
          </mxGeometry>
        </mxCell>
        <mxCell id="8eDwqu_KXpOvAN4puSAd-38" value="Display what method&amp;nbsp;&lt;div&gt;you like to pay the rental&lt;/div&gt;&lt;div&gt;&lt;br&gt;&lt;/div&gt;&lt;div&gt;1. Credit card&lt;/div&gt;&lt;div&gt;2. Debit card&lt;/div&gt;" style="shape=parallelogram;perimeter=parallelogramPerimeter;whiteSpace=wrap;html=1;fixedSize=1;" vertex="1" parent="1">
          <mxGeometry x="417.54999999999995" y="1760" width="164.99" height="80" as="geometry" />
        </mxCell>
        <mxCell id="8eDwqu_KXpOvAN4puSAd-40" value="" style="edgeStyle=orthogonalEdgeStyle;rounded=0;orthogonalLoop=1;jettySize=auto;html=1;exitX=0.5;exitY=1;exitDx=0;exitDy=0;entryX=0.5;entryY=0;entryDx=0;entryDy=0;" edge="1" parent="1" source="8eDwqu_KXpOvAN4puSAd-33" target="8eDwqu_KXpOvAN4puSAd-38">
          <mxGeometry relative="1" as="geometry">
            <mxPoint x="510.03" y="1580" as="sourcePoint" />
            <mxPoint x="510.03" y="1620" as="targetPoint" />
            <Array as="points">
              <mxPoint x="500.03" y="1740" />
              <mxPoint x="500.03" y="1740" />
            </Array>
          </mxGeometry>
        </mxCell>
        <mxCell id="8eDwqu_KXpOvAN4puSAd-41" value="" style="edgeStyle=orthogonalEdgeStyle;rounded=0;orthogonalLoop=1;jettySize=auto;html=1;exitX=0;exitY=0.5;exitDx=0;exitDy=0;entryX=0;entryY=0.5;entryDx=0;entryDy=0;" edge="1" parent="1" source="8eDwqu_KXpOvAN4puSAd-33" target="8eDwqu_KXpOvAN4puSAd-3">
          <mxGeometry relative="1" as="geometry">
            <mxPoint x="400.03" y="1660" as="sourcePoint" />
            <mxPoint x="300.03" y="700" as="targetPoint" />
            <Array as="points">
              <mxPoint x="280.03" y="1665" />
              <mxPoint x="280.03" y="695" />
            </Array>
          </mxGeometry>
        </mxCell>
        <mxCell id="8eDwqu_KXpOvAN4puSAd-42" value="" style="edgeStyle=orthogonalEdgeStyle;rounded=0;orthogonalLoop=1;jettySize=auto;html=1;entryX=0;entryY=0.5;entryDx=0;entryDy=0;" edge="1" parent="1" target="8eDwqu_KXpOvAN4puSAd-13">
          <mxGeometry relative="1" as="geometry">
            <mxPoint x="460.03" y="1280" as="sourcePoint" />
            <mxPoint x="340.03" y="940" as="targetPoint" />
            <Array as="points">
              <mxPoint x="340.03" y="1280" />
              <mxPoint x="340.03" y="935" />
            </Array>
          </mxGeometry>
        </mxCell>
        <mxCell id="8eDwqu_KXpOvAN4puSAd-43" value="" style="edgeStyle=orthogonalEdgeStyle;rounded=0;orthogonalLoop=1;jettySize=auto;html=1;exitX=0;exitY=0.5;exitDx=0;exitDy=0;" edge="1" parent="1" source="8eDwqu_KXpOvAN4puSAd-15">
          <mxGeometry relative="1" as="geometry">
            <mxPoint x="455.03" y="1060" as="sourcePoint" />
            <mxPoint x="280.03" y="990" as="targetPoint" />
            <Array as="points">
              <mxPoint x="280.03" y="1060" />
              <mxPoint x="280.03" y="1000" />
            </Array>
          </mxGeometry>
        </mxCell>
        <mxCell id="8eDwqu_KXpOvAN4puSAd-44" value="yes" style="text;html=1;align=center;verticalAlign=middle;whiteSpace=wrap;rounded=0;" vertex="1" parent="1">
          <mxGeometry x="399.40999999999997" y="1030" width="60" height="30" as="geometry" />
        </mxCell>
        <mxCell id="8eDwqu_KXpOvAN4puSAd-45" value="yes" style="text;html=1;align=center;verticalAlign=middle;whiteSpace=wrap;rounded=0;" vertex="1" parent="1">
          <mxGeometry x="530.04" y="1140" width="60" height="30" as="geometry" />
        </mxCell>
        <mxCell id="8eDwqu_KXpOvAN4puSAd-47" value="yes" style="text;html=1;align=center;verticalAlign=middle;whiteSpace=wrap;rounded=0;" vertex="1" parent="1">
          <mxGeometry x="490.03" y="1310" width="60" height="30" as="geometry" />
        </mxCell>
        <mxCell id="8eDwqu_KXpOvAN4puSAd-48" value="no" style="text;html=1;align=center;verticalAlign=middle;whiteSpace=wrap;rounded=0;" vertex="1" parent="1">
          <mxGeometry x="399.40999999999997" y="1250" width="60" height="30" as="geometry" />
        </mxCell>
        <mxCell id="8eDwqu_KXpOvAN4puSAd-49" value="no" style="text;html=1;align=center;verticalAlign=middle;whiteSpace=wrap;rounded=0;" vertex="1" parent="1">
          <mxGeometry x="485.03999999999996" y="1200" width="60" height="30" as="geometry" />
        </mxCell>
        <mxCell id="8eDwqu_KXpOvAN4puSAd-53" value="" style="edgeStyle=orthogonalEdgeStyle;rounded=0;orthogonalLoop=1;jettySize=auto;html=1;" edge="1" parent="1" source="8eDwqu_KXpOvAN4puSAd-50" target="8eDwqu_KXpOvAN4puSAd-51">
          <mxGeometry relative="1" as="geometry" />
        </mxCell>
        <mxCell id="8eDwqu_KXpOvAN4puSAd-50" value="Option 1&lt;div&gt;(Credit&lt;/div&gt;&lt;div&gt;Card)&lt;/div&gt;" style="rhombus;whiteSpace=wrap;html=1;" vertex="1" parent="1">
          <mxGeometry x="455.05999999999995" y="1880" width="89.98" height="80" as="geometry" />
        </mxCell>
        <mxCell id="8eDwqu_KXpOvAN4puSAd-56" value="" style="edgeStyle=orthogonalEdgeStyle;rounded=0;orthogonalLoop=1;jettySize=auto;html=1;" edge="1" parent="1" source="8eDwqu_KXpOvAN4puSAd-51" target="8eDwqu_KXpOvAN4puSAd-55">
          <mxGeometry relative="1" as="geometry" />
        </mxCell>
        <mxCell id="8eDwqu_KXpOvAN4puSAd-51" value="Option 2&lt;div&gt;(Debit&lt;/div&gt;&lt;div&gt;Card)&lt;/div&gt;" style="rhombus;whiteSpace=wrap;html=1;" vertex="1" parent="1">
          <mxGeometry x="455.05999999999995" y="1990" width="89.98" height="80" as="geometry" />
        </mxCell>
        <mxCell id="8eDwqu_KXpOvAN4puSAd-52" value="" style="edgeStyle=orthogonalEdgeStyle;rounded=0;orthogonalLoop=1;jettySize=auto;html=1;exitX=0.5;exitY=1;exitDx=0;exitDy=0;entryX=0.5;entryY=0;entryDx=0;entryDy=0;" edge="1" parent="1" source="8eDwqu_KXpOvAN4puSAd-38" target="8eDwqu_KXpOvAN4puSAd-50">
          <mxGeometry relative="1" as="geometry">
            <mxPoint x="530.03" y="1860" as="sourcePoint" />
            <mxPoint x="530.03" y="1900" as="targetPoint" />
            <Array as="points">
              <mxPoint x="500.03" y="1860" />
              <mxPoint x="500.03" y="1860" />
            </Array>
          </mxGeometry>
        </mxCell>
        <mxCell id="8eDwqu_KXpOvAN4puSAd-54" value="no" style="text;html=1;align=center;verticalAlign=middle;whiteSpace=wrap;rounded=0;" vertex="1" parent="1">
          <mxGeometry x="370.03" y="1640" width="60" height="30" as="geometry" />
        </mxCell>
        <mxCell id="8eDwqu_KXpOvAN4puSAd-64" value="" style="edgeStyle=orthogonalEdgeStyle;rounded=0;orthogonalLoop=1;jettySize=auto;html=1;" edge="1" parent="1" source="8eDwqu_KXpOvAN4puSAd-55" target="8eDwqu_KXpOvAN4puSAd-63">
          <mxGeometry relative="1" as="geometry" />
        </mxCell>
        <mxCell id="8eDwqu_KXpOvAN4puSAd-55" value="Display Thank you for&amp;nbsp;&lt;div&gt;your purchase&lt;/div&gt;" style="shape=parallelogram;perimeter=parallelogramPerimeter;whiteSpace=wrap;html=1;fixedSize=1;" vertex="1" parent="1">
          <mxGeometry x="418.78" y="2100" width="162.5" height="40" as="geometry" />
        </mxCell>
        <mxCell id="8eDwqu_KXpOvAN4puSAd-57" value="" style="edgeStyle=orthogonalEdgeStyle;rounded=0;orthogonalLoop=1;jettySize=auto;html=1;exitX=1;exitY=0.5;exitDx=0;exitDy=0;entryX=1;entryY=0.5;entryDx=0;entryDy=0;" edge="1" parent="1" source="8eDwqu_KXpOvAN4puSAd-50" target="8eDwqu_KXpOvAN4puSAd-55">
          <mxGeometry relative="1" as="geometry">
            <mxPoint x="650.03" y="1930" as="sourcePoint" />
            <mxPoint x="640.03" y="2130" as="targetPoint" />
            <Array as="points">
              <mxPoint x="640.03" y="1920" />
              <mxPoint x="640.03" y="2120" />
            </Array>
          </mxGeometry>
        </mxCell>
        <mxCell id="8eDwqu_KXpOvAN4puSAd-58" value="no" style="text;html=1;align=center;verticalAlign=middle;whiteSpace=wrap;rounded=0;" vertex="1" parent="1">
          <mxGeometry x="485.03" y="1950" width="60" height="30" as="geometry" />
        </mxCell>
        <mxCell id="8eDwqu_KXpOvAN4puSAd-59" value="" style="edgeStyle=orthogonalEdgeStyle;rounded=0;orthogonalLoop=1;jettySize=auto;html=1;entryX=0;entryY=0.25;entryDx=0;entryDy=0;exitX=0;exitY=0.5;exitDx=0;exitDy=0;" edge="1" parent="1" source="8eDwqu_KXpOvAN4puSAd-51" target="8eDwqu_KXpOvAN4puSAd-38">
          <mxGeometry relative="1" as="geometry">
            <mxPoint x="450.03" y="2030" as="sourcePoint" />
            <mxPoint x="360.03" y="1780" as="targetPoint" />
            <Array as="points">
              <mxPoint x="370.03" y="2030" />
              <mxPoint x="370.03" y="1783" />
            </Array>
          </mxGeometry>
        </mxCell>
        <mxCell id="8eDwqu_KXpOvAN4puSAd-60" value="no" style="text;html=1;align=center;verticalAlign=middle;whiteSpace=wrap;rounded=0;" vertex="1" parent="1">
          <mxGeometry x="410.03999999999996" y="2000" width="60" height="30" as="geometry" />
        </mxCell>
        <mxCell id="8eDwqu_KXpOvAN4puSAd-61" value="yes" style="text;html=1;align=center;verticalAlign=middle;whiteSpace=wrap;rounded=0;" vertex="1" parent="1">
          <mxGeometry x="550.03" y="1890" width="60" height="30" as="geometry" />
        </mxCell>
        <mxCell id="8eDwqu_KXpOvAN4puSAd-62" value="yes" style="text;html=1;align=center;verticalAlign=middle;whiteSpace=wrap;rounded=0;" vertex="1" parent="1">
          <mxGeometry x="485.03999999999996" y="2060" width="60" height="30" as="geometry" />
        </mxCell>
        <mxCell id="8eDwqu_KXpOvAN4puSAd-67" value="" style="edgeStyle=orthogonalEdgeStyle;rounded=0;orthogonalLoop=1;jettySize=auto;html=1;" edge="1" parent="1" source="8eDwqu_KXpOvAN4puSAd-63" target="8eDwqu_KXpOvAN4puSAd-66">
          <mxGeometry relative="1" as="geometry" />
        </mxCell>
        <mxCell id="8eDwqu_KXpOvAN4puSAd-63" value="Would you like to rental another car" style="rhombus;whiteSpace=wrap;html=1;" vertex="1" parent="1">
          <mxGeometry x="437.53" y="2180" width="124.97" height="90" as="geometry" />
        </mxCell>
        <mxCell id="8eDwqu_KXpOvAN4puSAd-73" value="" style="edgeStyle=orthogonalEdgeStyle;rounded=0;orthogonalLoop=1;jettySize=auto;html=1;" edge="1" parent="1" source="8eDwqu_KXpOvAN4puSAd-66" target="8eDwqu_KXpOvAN4puSAd-72">
          <mxGeometry relative="1" as="geometry" />
        </mxCell>
        <mxCell id="8eDwqu_KXpOvAN4puSAd-66" value="&amp;nbsp; Display Thank you for using our app" style="shape=parallelogram;perimeter=parallelogramPerimeter;whiteSpace=wrap;html=1;fixedSize=1;" vertex="1" parent="1">
          <mxGeometry x="428.79999999999995" y="2300" width="142.5" height="40" as="geometry" />
        </mxCell>
        <mxCell id="8eDwqu_KXpOvAN4puSAd-68" value="" style="edgeStyle=orthogonalEdgeStyle;rounded=0;orthogonalLoop=1;jettySize=auto;html=1;exitX=0;exitY=0.5;exitDx=0;exitDy=0;" edge="1" parent="1" source="8eDwqu_KXpOvAN4puSAd-63">
          <mxGeometry relative="1" as="geometry">
            <mxPoint x="390.03" y="2240" as="sourcePoint" />
            <mxPoint x="280.03" y="1610" as="targetPoint" />
            <Array as="points">
              <mxPoint x="280.03" y="2225" />
            </Array>
          </mxGeometry>
        </mxCell>
        <mxCell id="8eDwqu_KXpOvAN4puSAd-69" value="" style="edgeStyle=orthogonalEdgeStyle;rounded=0;orthogonalLoop=1;jettySize=auto;html=1;" edge="1" parent="1">
          <mxGeometry relative="1" as="geometry">
            <mxPoint x="280.03" y="2050" as="sourcePoint" />
            <mxPoint x="280.03" y="2000" as="targetPoint" />
          </mxGeometry>
        </mxCell>
        <mxCell id="8eDwqu_KXpOvAN4puSAd-70" value="yes" style="text;html=1;align=center;verticalAlign=middle;whiteSpace=wrap;rounded=0;" vertex="1" parent="1">
          <mxGeometry x="390.03" y="2200" width="60" height="30" as="geometry" />
        </mxCell>
        <mxCell id="8eDwqu_KXpOvAN4puSAd-71" value="no" style="text;html=1;align=center;verticalAlign=middle;whiteSpace=wrap;rounded=0;" vertex="1" parent="1">
          <mxGeometry x="490.03" y="2260" width="60" height="30" as="geometry" />
        </mxCell>
        <mxCell id="8eDwqu_KXpOvAN4puSAd-72" value="End" style="ellipse;whiteSpace=wrap;html=1;" vertex="1" parent="1">
          <mxGeometry x="455.01" y="2370" width="90" height="60" as="geometry" />
        </mxCell>
        <mxCell id="8eDwqu_KXpOvAN4puSAd-74" value="yes" style="text;html=1;align=center;verticalAlign=middle;whiteSpace=wrap;rounded=0;" vertex="1" parent="1">
          <mxGeometry x="490.03" y="840" width="60" height="30" as="geometry" />
        </mxCell>
        <mxCell id="8eDwqu_KXpOvAN4puSAd-75" style="edgeStyle=orthogonalEdgeStyle;rounded=0;orthogonalLoop=1;jettySize=auto;html=1;exitX=0.5;exitY=1;exitDx=0;exitDy=0;" edge="1" parent="1" source="8eDwqu_KXpOvAN4puSAd-25" target="8eDwqu_KXpOvAN4puSAd-25">
          <mxGeometry relative="1" as="geometry" />
        </mxCell>
        <mxCell id="8eDwqu_KXpOvAN4puSAd-76" value="yes" style="text;html=1;align=center;verticalAlign=middle;whiteSpace=wrap;rounded=0;" vertex="1" parent="1">
          <mxGeometry x="490.03" y="1710" width="60" height="30" as="geometry" />
        </mxCell>
        <mxCell id="O7eTCn63_reXGQO6Kfxa-4" value="" style="edgeStyle=orthogonalEdgeStyle;rounded=0;orthogonalLoop=1;jettySize=auto;html=1;" edge="1" parent="1" source="O7eTCn63_reXGQO6Kfxa-1" target="O7eTCn63_reXGQO6Kfxa-3">
          <mxGeometry relative="1" as="geometry" />
        </mxCell>
        <mxCell id="O7eTCn63_reXGQO6Kfxa-10" value="" style="edgeStyle=orthogonalEdgeStyle;rounded=0;orthogonalLoop=1;jettySize=auto;html=1;" edge="1" parent="1" source="O7eTCn63_reXGQO6Kfxa-1" target="O7eTCn63_reXGQO6Kfxa-9">
          <mxGeometry relative="1" as="geometry" />
        </mxCell>
        <mxCell id="O7eTCn63_reXGQO6Kfxa-1" value="Do you have an account" style="rhombus;whiteSpace=wrap;html=1;" vertex="1" parent="1">
          <mxGeometry x="435" y="330" width="130.02" height="90" as="geometry" />
        </mxCell>
        <mxCell id="O7eTCn63_reXGQO6Kfxa-5" value="" style="edgeStyle=orthogonalEdgeStyle;rounded=0;orthogonalLoop=1;jettySize=auto;html=1;" edge="1" parent="1" source="O7eTCn63_reXGQO6Kfxa-2" target="O7eTCn63_reXGQO6Kfxa-1">
          <mxGeometry relative="1" as="geometry" />
        </mxCell>
        <mxCell id="O7eTCn63_reXGQO6Kfxa-2" value="display Login account" style="shape=parallelogram;perimeter=parallelogramPerimeter;whiteSpace=wrap;html=1;fixedSize=1;" vertex="1" parent="1">
          <mxGeometry x="410.00999999999993" y="237.5" width="180" height="50" as="geometry" />
        </mxCell>
        <mxCell id="O7eTCn63_reXGQO6Kfxa-23" value="" style="edgeStyle=orthogonalEdgeStyle;rounded=0;orthogonalLoop=1;jettySize=auto;html=1;" edge="1" parent="1" source="O7eTCn63_reXGQO6Kfxa-3" target="O7eTCn63_reXGQO6Kfxa-22">
          <mxGeometry relative="1" as="geometry" />
        </mxCell>
        <mxCell id="O7eTCn63_reXGQO6Kfxa-3" value="enter account password" style="shape=parallelogram;perimeter=parallelogramPerimeter;whiteSpace=wrap;html=1;fixedSize=1;" vertex="1" parent="1">
          <mxGeometry x="440.04999999999995" y="460" width="120" height="60" as="geometry" />
        </mxCell>
        <mxCell id="O7eTCn63_reXGQO6Kfxa-12" value="" style="edgeStyle=orthogonalEdgeStyle;rounded=0;orthogonalLoop=1;jettySize=auto;html=1;" edge="1" parent="1" source="O7eTCn63_reXGQO6Kfxa-9" target="O7eTCn63_reXGQO6Kfxa-11">
          <mxGeometry relative="1" as="geometry" />
        </mxCell>
        <mxCell id="O7eTCn63_reXGQO6Kfxa-9" value="Would you like to make an account" style="rhombus;whiteSpace=wrap;html=1;" vertex="1" parent="1">
          <mxGeometry x="660.03" y="325" width="109.98" height="100" as="geometry" />
        </mxCell>
        <mxCell id="O7eTCn63_reXGQO6Kfxa-13" value="" style="edgeStyle=orthogonalEdgeStyle;rounded=0;orthogonalLoop=1;jettySize=auto;html=1;" edge="1" parent="1" source="O7eTCn63_reXGQO6Kfxa-11" target="O7eTCn63_reXGQO6Kfxa-2">
          <mxGeometry relative="1" as="geometry" />
        </mxCell>
        <mxCell id="O7eTCn63_reXGQO6Kfxa-11" value="crate a new account" style="shape=parallelogram;perimeter=parallelogramPerimeter;whiteSpace=wrap;html=1;fixedSize=1;" vertex="1" parent="1">
          <mxGeometry x="645.02" y="240" width="140" height="45" as="geometry" />
        </mxCell>
        <mxCell id="O7eTCn63_reXGQO6Kfxa-14" value="" style="edgeStyle=orthogonalEdgeStyle;rounded=0;orthogonalLoop=1;jettySize=auto;html=1;exitX=1;exitY=0.5;exitDx=0;exitDy=0;" edge="1" parent="1" source="O7eTCn63_reXGQO6Kfxa-9" target="8eDwqu_KXpOvAN4puSAd-2">
          <mxGeometry relative="1" as="geometry">
            <mxPoint x="770.03" y="360" as="sourcePoint" />
            <mxPoint x="920.03" y="110" as="targetPoint" />
            <Array as="points">
              <mxPoint x="840" y="375" />
              <mxPoint x="840" y="160" />
            </Array>
          </mxGeometry>
        </mxCell>
        <mxCell id="O7eTCn63_reXGQO6Kfxa-16" value="no" style="text;html=1;align=center;verticalAlign=middle;whiteSpace=wrap;rounded=0;" vertex="1" parent="1">
          <mxGeometry x="759.4" y="350" width="60" height="30" as="geometry" />
        </mxCell>
        <mxCell id="O7eTCn63_reXGQO6Kfxa-17" value="no" style="text;html=1;align=center;verticalAlign=middle;whiteSpace=wrap;rounded=0;" vertex="1" parent="1">
          <mxGeometry x="550.03" y="340" width="60" height="30" as="geometry" />
        </mxCell>
        <mxCell id="O7eTCn63_reXGQO6Kfxa-18" value="yes" style="text;html=1;align=center;verticalAlign=middle;whiteSpace=wrap;rounded=0;" vertex="1" parent="1">
          <mxGeometry x="485.03999999999996" y="410" width="60" height="30" as="geometry" />
        </mxCell>
        <mxCell id="O7eTCn63_reXGQO6Kfxa-21" value="calculate total cost&lt;div&gt;rental&amp;nbsp;&lt;/div&gt;&lt;div&gt;(rental rate x rental days)&lt;/div&gt;" style="rounded=0;whiteSpace=wrap;html=1;" vertex="1" parent="1">
          <mxGeometry x="440.01" y="1430" width="120" height="60" as="geometry" />
        </mxCell>
        <mxCell id="O7eTCn63_reXGQO6Kfxa-25" value="" style="edgeStyle=orthogonalEdgeStyle;rounded=0;orthogonalLoop=1;jettySize=auto;html=1;" edge="1" parent="1" source="O7eTCn63_reXGQO6Kfxa-22" target="8eDwqu_KXpOvAN4puSAd-3">
          <mxGeometry relative="1" as="geometry" />
        </mxCell>
        <mxCell id="O7eTCn63_reXGQO6Kfxa-22" value="account Login" style="rounded=0;whiteSpace=wrap;html=1;" vertex="1" parent="1">
          <mxGeometry x="440.05" y="560" width="120" height="60" as="geometry" />
        </mxCell>
      </root>
    </mxGraphModel>
  </diagram>
</mxfile>
